<?xml version="1.0" encoding="iso-8859-1"?>
<!-- Generator: Adobe Illustrator 19.0.0, SVG Export Plug-In . SVG Version: 6.00 Build 0)  -->
<svg version="1.1" id="Capa_1" xmlns="http://www.w3.org/2000/svg" xmlns:xlink="http://www.w3.org/1999/xlink" x="0px" y="0px"
	 viewBox="0 0 511.999 511.999" style="enable-background:new 0 0 511.999 511.999;" xml:space="preserve">
<g>
	<g>
		<path d="M316.767,346.355c19.893-17.12,32.511-42.468,32.511-70.71v-4.917c0-51.434-41.845-93.279-93.279-93.279
			s-93.279,41.845-93.279,93.279v4.917c0,28.242,12.618,53.591,32.511,70.71C131,366.081,84.17,425.955,84.17,496.567
			c0,8.134,6.594,14.728,14.728,14.728H413.1c8.134,0,14.728-6.595,14.728-14.729C427.828,425.955,380.998,366.081,316.767,346.355z
			 M192.177,275.646v-4.917c0-35.192,28.631-63.822,63.822-63.822s63.822,28.631,63.822,63.822v4.917
			c0,35.192-28.631,63.822-63.822,63.822S192.177,310.837,192.177,275.646z M114.471,481.838
			c7.323-63.474,61.396-112.915,126.8-112.915h29.456c65.404,0,119.477,49.442,126.8,112.916L114.471,481.838z"/>
	</g>
</g>
<g>
	<g>
		<path d="M334.541,57.766c-1.471-4.528-5.04-8.066-9.58-9.497L289.548,37.11L267.991,6.881c-2.763-3.875-7.231-6.177-11.992-6.177
			c-4.761,0-9.228,2.302-11.992,6.177l-21.556,30.231L187.04,48.271c-4.541,1.432-8.109,4.969-9.581,9.497
			c-1.471,4.526-0.663,9.487,2.169,13.313l22.09,29.842l-0.33,37.128c-0.042,4.76,2.219,9.247,6.071,12.047
			c2.549,1.852,5.586,2.812,8.658,2.812c1.57,0,3.148-0.251,4.675-0.762L256,140.361l35.208,11.786
			c4.515,1.515,9.481,0.749,13.332-2.051c3.852-2.798,6.114-7.286,6.071-12.047l-0.33-37.128l22.09-29.842
			C335.204,67.254,336.011,62.294,334.541,57.766z M283.67,87.361c-1.903,2.572-2.918,5.694-2.889,8.894l0.19,21.403l-20.297-6.795
			c-1.517-0.509-3.096-0.762-4.676-0.762c-1.58,0-3.159,0.254-4.676,0.762l-20.297,6.795l0.19-21.404
			c0.029-3.199-0.986-6.321-2.89-8.893l-12.735-17.204l20.416-6.433c3.052-0.961,5.708-2.891,7.565-5.497L255.999,40.8
			l12.427,17.427c1.858,2.605,4.514,4.534,7.564,5.497l20.415,6.433L283.67,87.361z"/>
	</g>
</g>
<g>
	<g>
		<path d="M511.278,101.958c-1.471-4.527-5.04-8.065-9.581-9.496l-35.411-11.158l-21.556-30.231
			c-2.763-3.875-7.231-6.177-11.992-6.177s-9.228,2.302-11.992,6.177l-21.556,30.231l-35.411,11.158
			c-4.541,1.431-8.11,4.968-9.581,9.496c-1.472,4.527-0.664,9.488,2.169,13.314l22.09,29.843l-0.33,37.128
			c-0.043,4.761,2.219,9.248,6.07,12.047c3.853,2.8,8.818,3.56,13.333,2.052l35.208-11.786l35.208,11.786
			c1.527,0.512,3.105,0.761,4.675,0.761c3.071,0,6.109-0.961,8.658-2.813c3.851-2.798,6.113-7.286,6.07-12.047l-0.33-37.128
			l22.09-29.843C511.942,111.446,512.75,106.485,511.278,101.958z M460.41,131.552c-1.903,2.573-2.918,5.695-2.889,8.895
			l0.189,21.404l-20.297-6.796c-1.517-0.508-3.096-0.761-4.676-0.761s-3.159,0.254-4.676,0.761l-20.297,6.796l0.19-21.404
			c0.029-3.2-0.986-6.321-2.889-8.895l-12.735-17.203l20.414-6.433c3.052-0.961,5.708-2.891,7.565-5.497l12.427-17.427
			l12.427,17.427c1.858,2.605,4.514,4.534,7.565,5.497l20.414,6.433L460.41,131.552z"/>
	</g>
</g>
<g>
	<g>
		<path d="M157.802,101.957c-1.471-4.527-5.04-8.065-9.58-9.496l-35.411-11.158l-21.558-30.23
			c-2.764-3.875-7.231-6.177-11.992-6.177s-9.228,2.302-11.992,6.177L45.713,81.304L10.301,92.462
			c-4.541,1.431-8.109,4.968-9.58,9.496c-1.472,4.527-0.663,9.488,2.169,13.314l22.09,29.843l-0.33,37.128
			c-0.042,4.76,2.219,9.247,6.071,12.046c3.852,2.8,8.819,3.561,13.333,2.052l35.208-11.786l35.208,11.786
			c1.525,0.51,3.103,0.76,4.673,0.76c3.071,0,6.109-0.961,8.658-2.813c3.851-2.798,6.113-7.286,6.071-12.046l-0.33-37.128
			l22.09-29.843C158.465,111.446,159.274,106.485,157.802,101.957z M106.933,131.553c-1.903,2.572-2.918,5.694-2.89,8.893
			l0.19,21.405l-20.297-6.796c-1.517-0.508-3.096-0.761-4.676-0.761s-3.158,0.254-4.676,0.761l-20.297,6.796l0.19-21.405
			c0.029-3.199-0.986-6.321-2.89-8.893l-12.735-17.203l20.415-6.433c3.052-0.961,5.708-2.891,7.565-5.497l12.427-17.427
			l12.427,17.427c1.858,2.605,4.514,4.534,7.565,5.497l20.415,6.433L106.933,131.553z"/>
	</g>
</g>
<g>
</g>
<g>
</g>
<g>
</g>
<g>
</g>
<g>
</g>
<g>
</g>
<g>
</g>
<g>
</g>
<g>
</g>
<g>
</g>
<g>
</g>
<g>
</g>
<g>
</g>
<g>
</g>
<g>
</g>
</svg>
