<svg id="Capa_1" enable-background="new 0 0 511.998 511.998" height="512" viewBox="0 0 511.998 511.998" width="512" xmlns="http://www.w3.org/2000/svg"><g><g><path d="m318.515 301.498c26.191 0 47.5-21.309 47.5-47.5s-21.309-47.5-47.5-47.5c-15.887 0-29.967 7.848-38.595 19.863-7.639-2.918-15.653-4.417-23.916-4.417-8.264 0-16.28 1.5-23.921 4.42-8.628-12.016-22.709-19.865-38.597-19.865-26.191 0-47.5 21.309-47.5 47.5s21.309 47.5 47.5 47.5 47.5-21.309 47.5-47.5c0-4.925-.754-9.676-2.152-14.146 5.51-1.925 11.26-2.908 17.169-2.908 5.908 0 11.655.984 17.163 2.908-1.398 4.47-2.152 9.222-2.152 14.147.001 26.19 21.31 47.498 47.501 47.498zm-125.029-15c-17.92 0-32.5-14.58-32.5-32.5s14.58-32.5 32.5-32.5 32.5 14.58 32.5 32.5-14.579 32.5-32.5 32.5zm125.029-65c17.92 0 32.5 14.58 32.5 32.5s-14.58 32.5-32.5 32.5-32.5-14.58-32.5-32.5 14.58-32.5 32.5-32.5z"/><path d="m266.808 298.819c-2.729 3.132-6.669 4.928-10.81 4.928s-8.081-1.796-10.81-4.928c-2.722-3.123-7.459-3.447-10.582-.727-3.123 2.722-3.448 7.459-.727 10.582 5.579 6.401 13.641 10.073 22.119 10.073s16.54-3.671 22.119-10.073c2.721-3.123 2.396-7.86-.727-10.582-3.123-2.721-7.861-2.396-10.582.727z"/><path d="m444.709 251.129c0-15.857-8.515-29.758-21.21-37.384v-10.247c0-13.527-1.626-26.947-4.813-39.968 15.766-11.589 26.023-30.255 26.023-51.278 0-29.292-19.855-54.681-48.283-61.74l-189.891-47.155c-33.734-8.378-68.784-.901-96.163 20.511s-43.083 53.627-43.083 88.385c0 21.023 10.257 39.688 26.022 51.277-3.187 13.022-4.812 26.442-4.812 39.968v10.247c-12.695 7.625-21.21 21.527-21.21 37.384 0 23.669 18.969 42.977 42.501 43.554 2.495 8.366 5.727 16.536 9.69 24.474 1.313 2.63 3.963 4.151 6.716 4.151 1.125 0 2.269-.254 3.344-.791 3.706-1.851 5.21-6.354 3.36-10.061-9.556-19.139-14.4-39.774-14.4-61.33 0-26.94 7.758-52.879 22.431-75.259h162.583c4.142 0 7.5-3.358 7.5-7.5s-3.358-7.5-7.5-7.5h-172.61c-26.807 0-48.615-21.809-48.615-48.615 0-30.111 13.604-58.02 37.323-76.569s54.083-25.025 83.307-17.769l189.892 47.156c21.725 5.395 36.898 24.797 36.898 47.183 0 26.807-21.809 48.615-48.615 48.615h-47.579c-4.142 0-7.5 3.358-7.5 7.5s3.358 7.5 7.5 7.5h37.553c14.673 22.379 22.432 48.321 22.432 75.259 0 29.139-8.981 56.871-25.952 80.369l-57.313 12.281c-10.071 2.158-17.919 9.826-20.666 19.396-17.031.106-31.649 10.561-37.87 25.383-40.566-1.244-78.077-20.041-103.457-52.013-2.575-3.244-7.293-3.786-10.537-1.211s-3.787 7.292-1.211 10.537c15.921 20.057 36.154 35.426 58.865 45.255-33.501 17.996-57.937 50.387-65.455 88.116-1.604 8.047.471 16.312 5.692 22.676 5.257 6.408 13.022 10.083 21.306 10.083h198.191c8.284 0 16.049-3.675 21.306-10.083 4.912-5.988 7.037-13.658 5.935-21.246l27.901 5.979c1.931.414 3.876.617 5.806.617 6.224 0 12.292-2.117 17.245-6.121 6.49-5.246 10.211-13.041 10.211-21.386v-110.521c0-8.345-3.722-16.14-10.211-21.386s-14.892-7.252-23.051-5.504l-21.935 4.7c5.916-10.261 10.569-21.106 13.913-32.366 23.53-.579 42.496-19.886 42.496-43.553zm-341.21-47.631c0-10.918 1.172-21.753 3.452-32.327 5.24 2.138 10.825 3.596 16.649 4.265-5.845 10.194-10.451 20.966-13.773 32.139-2.151.051-4.264.256-6.329.61v-4.687zm-21.21 47.631c0-14.135 10.317-25.9 23.815-28.176-1.72 9.219-2.603 18.639-2.603 28.174 0 9.569.877 18.973 2.591 28.176-13.492-2.282-23.803-14.043-23.803-28.174zm220.689 245.869c-7.984 0-14.48-6.496-14.48-14.48v-36.722c.357.011.712.025 1.071.027 2.747 9.57 10.595 17.238 20.667 19.396l10.518 2.254-3.577 17.885c-1.349 6.745-7.321 11.64-14.199 11.64zm-14.48-118.798v52.596c-13.903-.696-25-12.225-25-26.298s11.097-25.602 25-26.298zm-31.829 50.94c-.223.004-.444.016-.668.016-16.869 0-30.817-12.715-32.784-29.063 8.257 1.801 16.716 2.927 25.308 3.341-.009.354-.027.707-.027 1.064 0 9.227 3.04 17.757 8.171 24.642zm-109.477 63.261c-2.36-2.877-3.3-6.606-2.578-10.23 7.069-35.476 31.075-65.613 63.654-80.748 2.646 24 23.039 42.734 47.732 42.734 5.352 0 10.571-.881 15.565-2.594.635.314 1.279.615 1.932.897v40.058c0 5.261 1.392 10.2 3.817 14.48h-120.412c-3.774 0-7.313-1.675-9.71-4.597zm220.188-10.23c.723 3.625-.217 7.353-2.577 10.23-2.396 2.921-5.936 4.597-9.709 4.597h-26.451c1.506-2.658 2.62-5.579 3.244-8.698l3.537-17.683 30.844 6.61c.404 1.643.783 3.294 1.112 4.944zm45.998-145.156c3.711-.795 7.529.117 10.478 2.502 2.95 2.384 4.642 5.928 4.642 9.721v110.521c0 3.793-1.692 7.336-4.642 9.721s-6.768 3.296-10.478 2.502l-100-21.429c-5.726-1.227-9.881-6.367-9.881-12.223v-67.663c0-5.855 4.155-10.996 9.88-12.223zm-7.461-57.714c1.71-9.203 2.584-18.62 2.584-28.174 0-9.533-.883-18.954-2.603-28.173 13.496 2.278 23.811 14.041 23.811 28.175 0 14.127-10.305 25.886-23.792 28.172zm2.582-75.803v4.686c-2.063-.353-4.175-.558-6.326-.609-3.322-11.173-7.927-21.946-13.771-32.14 5.822-.669 11.405-2.126 16.644-4.264 2.281 10.573 3.453 21.409 3.453 32.327z"/></g></g></svg>