<?xml version="1.0" encoding="iso-8859-1"?>
<!-- Generator: Adobe Illustrator 19.0.0, SVG Export Plug-In . SVG Version: 6.00 Build 0)  -->
<svg version="1.1" id="Capa_1" xmlns="http://www.w3.org/2000/svg" xmlns:xlink="http://www.w3.org/1999/xlink" x="0px" y="0px"
	 viewBox="0 0 512 512" style="enable-background:new 0 0 512 512;" xml:space="preserve">
<g>
	<g>
		<g>
			<polygon points="193.779,336.506 193.78,336.506 193.78,336.505 			"/>
			<path d="M193.78,175.494v161.011L333.221,256L193.78,175.494z M223.78,227.456L273.221,256l-49.441,28.545V227.456z"/>
		</g>
	</g>
</g>
<g>
	<g>
		<path d="M482,58.01v27.369h-41.599V58.01h-30v64.933H101.599V58.01h-30v27.369H30V58.01H0v395.98h30v-38.775h41.599v38.775h30
			v-64.933h308.802v64.933h30v-38.775H482v38.775h30V58.01H482z M71.599,385.215H30v-44.959h41.599V385.215z M71.599,310.256H30
			v-44.96h41.599V310.256z M71.599,235.296H30v-44.959h41.599V235.296z M71.599,160.337H30v-44.959h41.599V160.337z
			 M410.401,359.057H101.599V152.943h308.802V359.057z M482,385.215h-41.599v-44.959H482V385.215z M482,310.256h-41.599v-44.96H482
			V310.256z M482,235.296h-41.599v-44.959H482V235.296z M482,160.337h-41.599v-44.959H482V160.337z"/>
	</g>
</g>
<g>
</g>
<g>
</g>
<g>
</g>
<g>
</g>
<g>
</g>
<g>
</g>
<g>
</g>
<g>
</g>
<g>
</g>
<g>
</g>
<g>
</g>
<g>
</g>
<g>
</g>
<g>
</g>
<g>
</g>
</svg>
